%TF.GenerationSoftware,KiCad,Pcbnew,(6.0.8)*%
%TF.CreationDate,2022-11-08T22:30:31-08:00*%
%TF.ProjectId,ShittyOBC,53686974-7479-44f4-9243-2e6b69636164,rev?*%
%TF.SameCoordinates,Original*%
%TF.FileFunction,Legend,Top*%
%TF.FilePolarity,Positive*%
%FSLAX46Y46*%
G04 Gerber Fmt 4.6, Leading zero omitted, Abs format (unit mm)*
G04 Created by KiCad (PCBNEW (6.0.8)) date 2022-11-08 22:30:31*
%MOMM*%
%LPD*%
G01*
G04 APERTURE LIST*
%ADD10C,0.150000*%
%ADD11C,0.120000*%
G04 APERTURE END LIST*
D10*
%TO.C,U2*%
X158913095Y-92627380D02*
X158913095Y-93436904D01*
X158960714Y-93532142D01*
X159008333Y-93579761D01*
X159103571Y-93627380D01*
X159294047Y-93627380D01*
X159389285Y-93579761D01*
X159436904Y-93532142D01*
X159484523Y-93436904D01*
X159484523Y-92627380D01*
X159913095Y-92722619D02*
X159960714Y-92675000D01*
X160055952Y-92627380D01*
X160294047Y-92627380D01*
X160389285Y-92675000D01*
X160436904Y-92722619D01*
X160484523Y-92817857D01*
X160484523Y-92913095D01*
X160436904Y-93055952D01*
X159865476Y-93627380D01*
X160484523Y-93627380D01*
%TO.C,J8*%
X130039285Y-115054761D02*
X130182142Y-115102380D01*
X130420238Y-115102380D01*
X130515476Y-115054761D01*
X130563095Y-115007142D01*
X130610714Y-114911904D01*
X130610714Y-114816666D01*
X130563095Y-114721428D01*
X130515476Y-114673809D01*
X130420238Y-114626190D01*
X130229761Y-114578571D01*
X130134523Y-114530952D01*
X130086904Y-114483333D01*
X130039285Y-114388095D01*
X130039285Y-114292857D01*
X130086904Y-114197619D01*
X130134523Y-114150000D01*
X130229761Y-114102380D01*
X130467857Y-114102380D01*
X130610714Y-114150000D01*
X131039285Y-115102380D02*
X131039285Y-114102380D01*
X131277380Y-114102380D01*
X131420238Y-114150000D01*
X131515476Y-114245238D01*
X131563095Y-114340476D01*
X131610714Y-114530952D01*
X131610714Y-114673809D01*
X131563095Y-114864285D01*
X131515476Y-114959523D01*
X131420238Y-115054761D01*
X131277380Y-115102380D01*
X131039285Y-115102380D01*
%TO.C,J1*%
X159166666Y-116452380D02*
X159166666Y-117166666D01*
X159119047Y-117309523D01*
X159023809Y-117404761D01*
X158880952Y-117452380D01*
X158785714Y-117452380D01*
X160166666Y-117452380D02*
X159595238Y-117452380D01*
X159880952Y-117452380D02*
X159880952Y-116452380D01*
X159785714Y-116595238D01*
X159690476Y-116690476D01*
X159595238Y-116738095D01*
%TO.C,J7*%
X154172380Y-86733333D02*
X154886666Y-86733333D01*
X155029523Y-86780952D01*
X155124761Y-86876190D01*
X155172380Y-87019047D01*
X155172380Y-87114285D01*
X154172380Y-86352380D02*
X154172380Y-85685714D01*
X155172380Y-86114285D01*
%TO.C,J4*%
X130185714Y-79000000D02*
X130090476Y-78952380D01*
X129947619Y-78952380D01*
X129804761Y-79000000D01*
X129709523Y-79095238D01*
X129661904Y-79190476D01*
X129614285Y-79380952D01*
X129614285Y-79523809D01*
X129661904Y-79714285D01*
X129709523Y-79809523D01*
X129804761Y-79904761D01*
X129947619Y-79952380D01*
X130042857Y-79952380D01*
X130185714Y-79904761D01*
X130233333Y-79857142D01*
X130233333Y-79523809D01*
X130042857Y-79523809D01*
X130661904Y-79952380D02*
X130661904Y-78952380D01*
X131042857Y-78952380D01*
X131138095Y-79000000D01*
X131185714Y-79047619D01*
X131233333Y-79142857D01*
X131233333Y-79285714D01*
X131185714Y-79380952D01*
X131138095Y-79428571D01*
X131042857Y-79476190D01*
X130661904Y-79476190D01*
X131614285Y-79904761D02*
X131757142Y-79952380D01*
X131995238Y-79952380D01*
X132090476Y-79904761D01*
X132138095Y-79857142D01*
X132185714Y-79761904D01*
X132185714Y-79666666D01*
X132138095Y-79571428D01*
X132090476Y-79523809D01*
X131995238Y-79476190D01*
X131804761Y-79428571D01*
X131709523Y-79380952D01*
X131661904Y-79333333D01*
X131614285Y-79238095D01*
X131614285Y-79142857D01*
X131661904Y-79047619D01*
X131709523Y-79000000D01*
X131804761Y-78952380D01*
X132042857Y-78952380D01*
X132185714Y-79000000D01*
%TO.C,U3*%
X142488095Y-72572380D02*
X142488095Y-73381904D01*
X142535714Y-73477142D01*
X142583333Y-73524761D01*
X142678571Y-73572380D01*
X142869047Y-73572380D01*
X142964285Y-73524761D01*
X143011904Y-73477142D01*
X143059523Y-73381904D01*
X143059523Y-72572380D01*
X143488095Y-73524761D02*
X143630952Y-73572380D01*
X143869047Y-73572380D01*
X143964285Y-73524761D01*
X144011904Y-73477142D01*
X144059523Y-73381904D01*
X144059523Y-73286666D01*
X144011904Y-73191428D01*
X143964285Y-73143809D01*
X143869047Y-73096190D01*
X143678571Y-73048571D01*
X143583333Y-73000952D01*
X143535714Y-72953333D01*
X143488095Y-72858095D01*
X143488095Y-72762857D01*
X143535714Y-72667619D01*
X143583333Y-72620000D01*
X143678571Y-72572380D01*
X143916666Y-72572380D01*
X144059523Y-72620000D01*
X144821428Y-73048571D02*
X144964285Y-73096190D01*
X145011904Y-73143809D01*
X145059523Y-73239047D01*
X145059523Y-73381904D01*
X145011904Y-73477142D01*
X144964285Y-73524761D01*
X144869047Y-73572380D01*
X144488095Y-73572380D01*
X144488095Y-72572380D01*
X144821428Y-72572380D01*
X144916666Y-72620000D01*
X144964285Y-72667619D01*
X145011904Y-72762857D01*
X145011904Y-72858095D01*
X144964285Y-72953333D01*
X144916666Y-73000952D01*
X144821428Y-73048571D01*
X144488095Y-73048571D01*
%TO.C,J2*%
X154172380Y-83133333D02*
X154886666Y-83133333D01*
X155029523Y-83180952D01*
X155124761Y-83276190D01*
X155172380Y-83419047D01*
X155172380Y-83514285D01*
X154267619Y-82704761D02*
X154220000Y-82657142D01*
X154172380Y-82561904D01*
X154172380Y-82323809D01*
X154220000Y-82228571D01*
X154267619Y-82180952D01*
X154362857Y-82133333D01*
X154458095Y-82133333D01*
X154600952Y-82180952D01*
X155172380Y-82752380D01*
X155172380Y-82133333D01*
%TO.C,J3*%
X154172380Y-90333333D02*
X154886666Y-90333333D01*
X155029523Y-90380952D01*
X155124761Y-90476190D01*
X155172380Y-90619047D01*
X155172380Y-90714285D01*
X154172380Y-89952380D02*
X154172380Y-89333333D01*
X154553333Y-89666666D01*
X154553333Y-89523809D01*
X154600952Y-89428571D01*
X154648571Y-89380952D01*
X154743809Y-89333333D01*
X154981904Y-89333333D01*
X155077142Y-89380952D01*
X155124761Y-89428571D01*
X155172380Y-89523809D01*
X155172380Y-89809523D01*
X155124761Y-89904761D01*
X155077142Y-89952380D01*
%TO.C,J6*%
X154127380Y-79533333D02*
X154841666Y-79533333D01*
X154984523Y-79580952D01*
X155079761Y-79676190D01*
X155127380Y-79819047D01*
X155127380Y-79914285D01*
X154127380Y-78628571D02*
X154127380Y-78819047D01*
X154175000Y-78914285D01*
X154222619Y-78961904D01*
X154365476Y-79057142D01*
X154555952Y-79104761D01*
X154936904Y-79104761D01*
X155032142Y-79057142D01*
X155079761Y-79009523D01*
X155127380Y-78914285D01*
X155127380Y-78723809D01*
X155079761Y-78628571D01*
X155032142Y-78580952D01*
X154936904Y-78533333D01*
X154698809Y-78533333D01*
X154603571Y-78580952D01*
X154555952Y-78628571D01*
X154508333Y-78723809D01*
X154508333Y-78914285D01*
X154555952Y-79009523D01*
X154603571Y-79057142D01*
X154698809Y-79104761D01*
D11*
%TO.C,U2*%
X154580000Y-97016000D02*
X164820000Y-97016000D01*
X157850000Y-92375000D02*
X157850000Y-93885000D01*
X154580000Y-92375000D02*
X154580000Y-97016000D01*
X161551000Y-92375000D02*
X161551000Y-93885000D01*
X154580000Y-93885000D02*
X164820000Y-93885000D01*
X164820000Y-92375000D02*
X164820000Y-97016000D01*
X154580000Y-92375000D02*
X164820000Y-92375000D01*
%TO.C,J8*%
X129520000Y-113400000D02*
X132180000Y-113400000D01*
X132180000Y-98040000D02*
X132180000Y-99370000D01*
X129520000Y-100640000D02*
X129520000Y-113400000D01*
X132180000Y-100640000D02*
X132180000Y-113400000D01*
X130850000Y-98040000D02*
X132180000Y-98040000D01*
X129520000Y-100640000D02*
X132180000Y-100640000D01*
%TO.C,J1*%
X161200000Y-115700000D02*
X163800000Y-112850000D01*
X158050000Y-115700000D02*
X161200000Y-115700000D01*
X163800000Y-112850000D02*
X163800000Y-100000000D01*
X163800000Y-100000000D02*
X155500000Y-100000000D01*
X155500000Y-100000000D02*
X155500000Y-112850000D01*
X155500000Y-112850000D02*
X158050000Y-115700000D01*
%TO.C,J7*%
X158320000Y-85070000D02*
X163460000Y-85070000D01*
X157050000Y-87730000D02*
X155720000Y-87730000D01*
X163460000Y-87730000D02*
X163460000Y-85070000D01*
X155720000Y-87730000D02*
X155720000Y-86400000D01*
X158320000Y-87730000D02*
X163460000Y-87730000D01*
X158320000Y-87730000D02*
X158320000Y-85070000D01*
%TO.C,J4*%
X132110000Y-81190000D02*
X132110000Y-95410000D01*
X128590000Y-80690000D02*
X128590000Y-95910000D01*
X130900000Y-81190000D02*
X132110000Y-81190000D01*
X130900000Y-80690000D02*
X130900000Y-81190000D01*
X130900000Y-95410000D02*
X130900000Y-95910000D01*
X130090000Y-94910000D02*
X128590000Y-94910000D01*
X130790000Y-80390000D02*
X128290000Y-80390000D01*
X130090000Y-80690000D02*
X130090000Y-81690000D01*
X132610000Y-80690000D02*
X128590000Y-80690000D01*
X132110000Y-95410000D02*
X130900000Y-95410000D01*
X132610000Y-95910000D02*
X132610000Y-80690000D01*
X130090000Y-81690000D02*
X128590000Y-81690000D01*
X128290000Y-80390000D02*
X128290000Y-82890000D01*
X130090000Y-95910000D02*
X130090000Y-94910000D01*
X128590000Y-95910000D02*
X132610000Y-95910000D01*
D10*
%TO.C,U3*%
X147560000Y-75660000D02*
X147560000Y-70580000D01*
X139940000Y-70580000D02*
X139940000Y-75660000D01*
X153910000Y-70580000D02*
X153910000Y-123920000D01*
X133590000Y-123920000D02*
X133590000Y-70580000D01*
X133590000Y-70580000D02*
X153910000Y-70580000D01*
X153910000Y-123920000D02*
X133590000Y-123920000D01*
X139940000Y-75660000D02*
X147560000Y-75660000D01*
D11*
%TO.C,J2*%
X157050000Y-84130000D02*
X155720000Y-84130000D01*
X158320000Y-81470000D02*
X163460000Y-81470000D01*
X155720000Y-84130000D02*
X155720000Y-82800000D01*
X163460000Y-84130000D02*
X163460000Y-81470000D01*
X158320000Y-84130000D02*
X163460000Y-84130000D01*
X158320000Y-84130000D02*
X158320000Y-81470000D01*
%TO.C,J3*%
X163460000Y-91330000D02*
X163460000Y-88670000D01*
X155720000Y-91330000D02*
X155720000Y-90000000D01*
X158320000Y-91330000D02*
X158320000Y-88670000D01*
X157050000Y-91330000D02*
X155720000Y-91330000D01*
X158320000Y-88670000D02*
X163460000Y-88670000D01*
X158320000Y-91330000D02*
X163460000Y-91330000D01*
%TO.C,J6*%
X158320000Y-80530000D02*
X158320000Y-77870000D01*
X157050000Y-80530000D02*
X155720000Y-80530000D01*
X158320000Y-77870000D02*
X163460000Y-77870000D01*
X158320000Y-80530000D02*
X163460000Y-80530000D01*
X155720000Y-80530000D02*
X155720000Y-79200000D01*
X163460000Y-80530000D02*
X163460000Y-77870000D01*
%TD*%
M02*
