M48
; DRILL file {KiCad (6.0.8)} date Tue Nov  8 22:30:35 2022
; FORMAT={-:-/ absolute / inch / decimal}
; #@! TF.CreationDate,2022-11-08T22:30:35-08:00
; #@! TF.GenerationSoftware,Kicad,Pcbnew,(6.0.8)
; #@! TF.FileFunction,Plated,1,2,PTH
FMAT,2
INCH
; #@! TA.AperFunction,Plated,PTH,ViaDrill
T1C0.0157
; #@! TA.AperFunction,Plated,PTH,ComponentDrill
T2C0.0300
; #@! TA.AperFunction,Plated,PTH,ComponentDrill
T3C0.0374
; #@! TA.AperFunction,Plated,PTH,ComponentDrill
T4C0.0394
; #@! TA.AperFunction,Plated,PTH,ComponentDrill
T5C0.0433
; #@! TA.AperFunction,Plated,PTH,ComponentDrill
T6C0.1772
%
G90
G05
T1
X5.2638Y-3.9173
X5.2638Y-4.3661
X5.2987Y-4.1383
X5.4409Y-4.122
X5.4449Y-4.5669
X5.4537Y-4.4754
X5.4764Y-3.9331
X5.4764Y-4.0157
X5.5049Y-4.6512
X5.5059Y-4.5158
X5.5492Y-3.9469
X5.5768Y-3.8366
X5.5827Y-3.9961
X5.6575Y-4.673
X5.6752Y-4.5709
X5.7421Y-4.2677
X5.8051Y-4.4193
X5.811Y-3.9114
X5.82Y-3.78
X5.8287Y-4.2421
X5.876Y-3.9134
X5.876Y-4.1791
X6.2726Y-3.8701
X6.4685Y-3.8661
T2
X5.3594Y-2.8787
X5.3594Y-2.9787
X5.3594Y-3.0787
X5.3594Y-3.1787
X5.3594Y-3.2787
X5.3594Y-3.3787
X5.3594Y-3.4787
X5.3594Y-3.5787
X5.3594Y-3.6787
X5.3594Y-3.7787
X5.3594Y-3.8787
X5.3594Y-3.9787
X5.3594Y-4.0787
X5.3594Y-4.1787
X5.3594Y-4.2787
X5.3594Y-4.3787
X5.3594Y-4.4787
X5.3594Y-4.5787
X5.3594Y-4.6787
X5.3594Y-4.7787
X5.9594Y-2.8787
X5.9594Y-2.9787
X5.9594Y-3.0787
X5.9594Y-3.1787
X5.9594Y-3.2787
X5.9594Y-3.3787
X5.9594Y-3.4787
X5.9594Y-3.5787
X5.9594Y-3.6787
X5.9594Y-3.7787
X5.9594Y-3.8787
X5.9594Y-3.9787
X5.9594Y-4.0787
X5.9594Y-4.1787
X5.9594Y-4.2787
X5.9594Y-4.3787
X5.9594Y-4.4787
X5.9594Y-4.5787
X5.9594Y-4.6787
X5.9594Y-4.7787
T3
X5.1535Y-3.2795
X5.1535Y-3.378
X5.1535Y-3.4764
X5.1535Y-3.5748
X5.1535Y-3.6732
T4
X5.1516Y-3.9122
X5.1516Y-4.0122
X5.1516Y-4.1122
X5.1516Y-4.2122
X5.1516Y-4.3122
X5.1516Y-4.4122
X5.6102Y-3.124
X5.6102Y-3.224
X5.6102Y-3.324
X5.6102Y-3.424
X5.6102Y-3.524
X5.7102Y-3.124
X5.7102Y-3.224
X5.7102Y-3.324
X5.7102Y-3.424
X5.7102Y-3.524
X6.1831Y-3.1181
X6.1831Y-3.2598
X6.1831Y-3.4016
X6.1831Y-3.5433
X6.2831Y-3.1181
X6.2831Y-3.2598
X6.2831Y-3.4016
X6.2831Y-3.5433
X6.3831Y-3.1181
X6.3831Y-3.2598
X6.3831Y-3.4016
X6.3831Y-3.5433
T5
X6.1874Y-3.7656
X6.2874Y-3.7656
X6.3874Y-3.7656
T6
X6.2854Y-4.1043
X6.2854Y-4.3878
T0
M30
